<mxfile host="app.diagrams.net" modified="2020-12-16T15:51:23.134Z" agent="5.0 (Macintosh; Intel Mac OS X 10_15_7) AppleWebKit/537.36 (KHTML, like Gecko) Chrome/87.0.4280.88 Safari/537.36" etag="IOtlTZU757lqjrHUmGgn" version="14.0.1" type="github">
  <diagram id="C5RBs43oDa-KdzZeNtuy" name="Page-1">
    <mxGraphModel dx="3577" dy="1273" grid="1" gridSize="10" guides="1" tooltips="1" connect="1" arrows="1" fold="1" page="1" pageScale="1" pageWidth="1600" pageHeight="1200" math="0" shadow="0">
      <root>
        <mxCell id="WIyWlLk6GJQsqaUBKTNV-0" />
        <mxCell id="WIyWlLk6GJQsqaUBKTNV-1" parent="WIyWlLk6GJQsqaUBKTNV-0" />
        <mxCell id="Ka2zJ1rDpxwDhJ51ASd7-0" value="&lt;h3&gt;&lt;span style=&quot;font-weight: normal&quot;&gt;&lt;font face=&quot;Times New Roman&quot;&gt;Kepala&lt;br&gt;Balai Wilayah Sungai Sulawesi I&lt;/font&gt;&lt;/span&gt;&lt;/h3&gt;" style="rounded=1;whiteSpace=wrap;html=1;fontColor=#ffffff;strokeColor=none;fillColor=#0D2D6C;" vertex="1" parent="WIyWlLk6GJQsqaUBKTNV-1">
          <mxGeometry x="-1035" y="70" width="330" height="70" as="geometry" />
        </mxCell>
        <mxCell id="Ka2zJ1rDpxwDhJ51ASd7-2" value="" style="endArrow=classic;html=1;exitX=0.5;exitY=1;exitDx=0;exitDy=0;entryX=0.5;entryY=0;entryDx=0;entryDy=0;" edge="1" parent="WIyWlLk6GJQsqaUBKTNV-1" source="Ka2zJ1rDpxwDhJ51ASd7-0" target="Ka2zJ1rDpxwDhJ51ASd7-5">
          <mxGeometry width="50" height="50" relative="1" as="geometry">
            <mxPoint x="-870" y="130" as="sourcePoint" />
            <mxPoint x="-870" y="350" as="targetPoint" />
          </mxGeometry>
        </mxCell>
        <mxCell id="Ka2zJ1rDpxwDhJ51ASd7-3" value="&lt;h3&gt;&lt;span style=&quot;font-weight: normal&quot;&gt;&lt;font face=&quot;Times New Roman&quot;&gt;Kepala&lt;br&gt;Sub Bagian Tata Usaha&lt;/font&gt;&lt;/span&gt;&lt;/h3&gt;" style="rounded=1;whiteSpace=wrap;html=1;fillColor=#0D2D6C;fontColor=#FFFFFF;strokeColor=none;" vertex="1" parent="WIyWlLk6GJQsqaUBKTNV-1">
          <mxGeometry x="-665" y="210" width="330" height="60" as="geometry" />
        </mxCell>
        <mxCell id="Ka2zJ1rDpxwDhJ51ASd7-4" value="" style="endArrow=classic;html=1;" edge="1" parent="WIyWlLk6GJQsqaUBKTNV-1" target="Ka2zJ1rDpxwDhJ51ASd7-3">
          <mxGeometry width="50" height="50" relative="1" as="geometry">
            <mxPoint x="-870" y="240" as="sourcePoint" />
            <mxPoint x="-670" y="239.9999999999999" as="targetPoint" />
          </mxGeometry>
        </mxCell>
        <mxCell id="Ka2zJ1rDpxwDhJ51ASd7-5" value="&lt;h3&gt;&lt;font face=&quot;Times New Roman&quot;&gt;&lt;span style=&quot;font-weight: 400&quot;&gt;Kepala Seksi Dan Pelaksanaan&lt;/span&gt;&lt;/font&gt;&lt;/h3&gt;" style="rounded=1;whiteSpace=wrap;html=1;fillColor=#0D2D6C;fontColor=#FFFFFF;strokeColor=none;" vertex="1" parent="WIyWlLk6GJQsqaUBKTNV-1">
          <mxGeometry x="-1035" y="370" width="330" height="60" as="geometry" />
        </mxCell>
        <mxCell id="Ka2zJ1rDpxwDhJ51ASd7-6" value="&lt;h3&gt;&lt;span style=&quot;font-weight: normal&quot;&gt;&lt;font face=&quot;Times New Roman&quot;&gt;Kepala Seksi&lt;br&gt;Operasi Dan Pemeliharaan&lt;/font&gt;&lt;/span&gt;&lt;/h3&gt;" style="rounded=1;whiteSpace=wrap;html=1;fillColor=#0D2D6C;fontColor=#FFFFFF;strokeColor=none;" vertex="1" parent="WIyWlLk6GJQsqaUBKTNV-1">
          <mxGeometry x="-630" y="370" width="330" height="60" as="geometry" />
        </mxCell>
        <mxCell id="Ka2zJ1rDpxwDhJ51ASd7-7" value="&lt;h3&gt;&lt;span style=&quot;font-weight: normal&quot;&gt;&lt;font face=&quot;Times New Roman&quot;&gt;Kepala Seksi&lt;br&gt;Program Dan Pelaksanaan Umum&lt;/font&gt;&lt;/span&gt;&lt;/h3&gt;" style="rounded=1;whiteSpace=wrap;html=1;fillColor=#0D2D6C;fontColor=#FFFFFF;strokeColor=none;" vertex="1" parent="WIyWlLk6GJQsqaUBKTNV-1">
          <mxGeometry x="-1430" y="370" width="330" height="60" as="geometry" />
        </mxCell>
        <mxCell id="Ka2zJ1rDpxwDhJ51ASd7-8" value="" style="endArrow=classic;html=1;entryX=0;entryY=0.5;entryDx=0;entryDy=0;exitX=1;exitY=0.5;exitDx=0;exitDy=0;" edge="1" parent="WIyWlLk6GJQsqaUBKTNV-1" source="Ka2zJ1rDpxwDhJ51ASd7-5" target="Ka2zJ1rDpxwDhJ51ASd7-6">
          <mxGeometry width="50" height="50" relative="1" as="geometry">
            <mxPoint x="-750" y="670" as="sourcePoint" />
            <mxPoint x="-700" y="620" as="targetPoint" />
          </mxGeometry>
        </mxCell>
        <mxCell id="Ka2zJ1rDpxwDhJ51ASd7-9" value="" style="endArrow=classic;html=1;exitX=0;exitY=0.5;exitDx=0;exitDy=0;entryX=1;entryY=0.5;entryDx=0;entryDy=0;" edge="1" parent="WIyWlLk6GJQsqaUBKTNV-1" source="Ka2zJ1rDpxwDhJ51ASd7-5" target="Ka2zJ1rDpxwDhJ51ASd7-7">
          <mxGeometry width="50" height="50" relative="1" as="geometry">
            <mxPoint x="-750" y="670" as="sourcePoint" />
            <mxPoint x="-700" y="620" as="targetPoint" />
          </mxGeometry>
        </mxCell>
        <mxCell id="Ka2zJ1rDpxwDhJ51ASd7-10" value="" style="endArrow=classic;html=1;entryX=0.5;entryY=0;entryDx=0;entryDy=0;" edge="1" parent="WIyWlLk6GJQsqaUBKTNV-1" target="Ka2zJ1rDpxwDhJ51ASd7-11">
          <mxGeometry width="50" height="50" relative="1" as="geometry">
            <mxPoint x="-1065" y="400" as="sourcePoint" />
            <mxPoint x="-1065" y="530" as="targetPoint" />
          </mxGeometry>
        </mxCell>
        <mxCell id="Ka2zJ1rDpxwDhJ51ASd7-11" value="&lt;h3&gt;&lt;span style=&quot;font-weight: normal&quot;&gt;&lt;font face=&quot;Times New Roman&quot;&gt;Kepala&lt;br&gt;Jabatan Fungsional&lt;/font&gt;&lt;/span&gt;&lt;/h3&gt;" style="rounded=1;whiteSpace=wrap;html=1;fillColor=#0D2D6C;fontColor=#FFFFFF;strokeColor=none;" vertex="1" parent="WIyWlLk6GJQsqaUBKTNV-1">
          <mxGeometry x="-1230" y="540" width="330" height="70" as="geometry" />
        </mxCell>
      </root>
    </mxGraphModel>
  </diagram>
</mxfile>
